<?xml version="1.0" encoding="utf-8"?>
<!-- Generator: Adobe Illustrator 16.0.0, SVG Export Plug-In . SVG Version: 6.00 Build 0)  -->
<!DOCTYPE svg PUBLIC "-//W3C//DTD SVG 1.1//EN" "http://www.w3.org/Graphics/SVG/1.1/DTD/svg11.dtd">
<svg version="1.1" xmlns="http://www.w3.org/2000/svg" xmlns:xlink="http://www.w3.org/1999/xlink" x="0px" y="0px" width="200px"
	 height="200px" viewBox="0 0 200 200" enable-background="new 0 0 200 200" xml:space="preserve">
<g id="twitter" display="none">
	
		<g id="layer1" transform="translate(-282.32053,-396.30734)" inkscape:label="Layer 1" inkscape:groupmode="layer" display="inline">
		<path id="path5" inkscape:connector-curvature="0" fill="#FFFFFF" d="M445.437,456.367c-4.665,2.069-9.681,3.468-14.943,4.097
			c5.372-3.22,9.498-8.318,11.44-14.394c-5.027,2.981-10.596,5.146-16.523,6.313c-4.744-5.057-11.507-8.216-18.99-8.216
			c-14.368,0-26.018,11.649-26.018,26.017c0,2.039,0.229,4.025,0.673,5.929c-21.623-1.084-40.794-11.443-53.626-27.184
			c-2.24,3.842-3.523,8.311-3.523,13.079c0,9.027,4.593,16.99,11.574,21.656c-4.265-0.135-8.276-1.305-11.785-3.253
			c-0.003,0.108-0.003,0.217-0.003,0.327c0,12.605,8.969,23.12,20.871,25.513c-2.183,0.594-4.481,0.912-6.854,0.912
			c-1.676,0-3.306-0.164-4.895-0.467c3.311,10.336,12.919,17.857,24.305,18.067c-8.905,6.979-20.123,11.138-32.313,11.138
			c-2.1,0-4.171-0.123-6.207-0.363c11.515,7.383,25.19,11.689,39.883,11.689c47.856,0,74.026-39.645,74.026-74.027
			c0-1.128-0.025-2.25-0.074-3.366C437.537,466.167,441.948,461.585,445.437,456.367L445.437,456.367z"/>
	</g>
</g>
<g id="fb" display="none">
	<g id="facebook_1_" display="inline">
		<path fill="#FFFFFF" d="M93.189,50.917c-4.005,2.171-6.809,5.076-8.348,8.638c-1.437,3.349-2.142,8.087-2.142,14.515v2.186H72.344
			v20.911h10.355v55.82h24.889V97.17h13.937V76.259h-13.937v-1.856c0-4.027,0.826-5.041,0.927-5.149
			c0.534-0.575,1.792-0.892,3.522-0.892c2.476,0,5.111,0.324,7.838,0.977l3.159,0.753l3.673-18.935l-2.662-0.838
			C113.259,46.929,100.81,46.782,93.189,50.917z"/>
	</g>
</g>
<g id="reblog" display="none">
	<g display="inline">
		<g>
			<path fill="#FFFFFF" d="M46.96,91.788c-7.663-0.03-15.322,0.013-22.985-0.021c31.259-33.236,0,0,31.259-33.236
				c31.233,33.221,0,0,31.233,33.221c-7.653,0.077-15.308-0.018-22.962,0.047c-0.029,10.53-0.015,21.062-0.006,31.592
				c8.274,0.073,39.456-0.009,47.732,0.042c5.326,5.557,10.82,10.953,16.092,16.561c-17.431,0-54.343,0.041-80.364,0.041
				L46.96,91.788z"/>
		</g>
		<g>
			<path fill="#FFFFFF" d="M153.073,106.775c7.663,0.031,15.323-0.013,22.987,0.021c-31.26,33.236,0,0-31.26,33.236
				c-31.232-33.221,0,0-31.232-33.221c7.652-0.078,15.308,0.019,22.962-0.047c0.03-10.53,0.014-21.061,0.007-31.592
				c-8.275-0.073-39.456,0.009-47.733-0.043c-5.326-5.556-10.82-10.952-16.093-16.56c17.431,0,54.344-0.04,80.364-0.04
				L153.073,106.775z"/>
		</g>
	</g>
</g>
<g id="eye">
	<g>
		<path fill="#FFFFFF" d="M172.537,99.014c-0.004-0.061-0.008-0.118-0.014-0.177c-0.002-0.03-0.004-0.061-0.008-0.089
			c-0.002-0.043-0.012-0.086-0.018-0.128c-0.004-0.051-0.01-0.101-0.02-0.15c0-0.006-0.002-0.013-0.002-0.019
			c-0.178-1.113-0.701-2.158-1.506-2.961c-4.596-5.446-10.061-10.293-15.619-14.719c-11.971-9.538-25.66-17.518-40.773-20.73
			c-8.734-1.855-17.523-1.934-26.304-0.364c-7.987,1.429-15.684,4.399-22.889,8.08C54.109,73.518,43.81,81.462,34.837,90.368
			c-1.661,1.648-3.313,3.33-4.823,5.12c-2.011,2.383-2.011,5.204,0,7.586c4.595,5.447,10.062,10.291,15.62,14.719
			c11.972,9.539,25.663,17.516,40.775,20.729c8.734,1.857,17.524,1.936,26.306,0.365c7.984-1.428,15.682-4.398,22.889-8.08
			c11.275-5.764,21.574-13.705,30.549-22.609c1.66-1.65,3.311-3.33,4.822-5.123c0.803-0.805,1.328-1.846,1.504-2.961
			c0-0.006,0.002-0.013,0.004-0.019c0.008-0.051,0.014-0.1,0.02-0.149c0.006-0.042,0.014-0.085,0.018-0.128
			c0.002-0.03,0.004-0.06,0.008-0.09c0.004-0.057,0.01-0.115,0.012-0.176c0.004-0.089,0.008-0.179,0.008-0.269
			C172.547,99.191,172.541,99.104,172.537,99.014z M100.526,126.996c-15.307,0-27.714-12.406-27.714-27.714
			c0-15.305,12.408-27.714,27.714-27.714c15.306,0,27.714,12.408,27.714,27.714C128.24,114.59,115.832,126.996,100.526,126.996z"/>
		<circle fill="#FFFFFF" cx="100.526" cy="99.282" r="9.173"/>
	</g>
</g>
</svg>
